<svg width="903" height="384" viewBox="0 0 903 384" fill="none" xmlns="http://www.w3.org/2000/svg">
<rect x="1.5" y="101.5" width="900" height="281" rx="44.5" stroke="white" stroke-width="3" stroke-linecap="round" stroke-linejoin="round" stroke-dasharray="20 20"/>
<path d="M377.189 18.2013L491.813 10.186L515.123 31.9041L537.659 53.6764L550.657 239.553L393.437 250.547L377.189 18.2013Z" fill="#282831"/>
<path d="M492.015 10.226L538.073 54.0371L495.29 57.0284L492.015 10.226Z" fill="#9399A5"/>
<mask id="mask0_294_313" style="mask-type:alpha" maskUnits="userSpaceOnUse" x="406" y="70" width="118" height="118">
<rect x="406.306" y="78.427" width="109.417" height="109.417" transform="rotate(-4 406.306 78.427)" fill="#D9D9D9"/>
</mask>
<g mask="url(#mask0_294_313)">
<path d="M458.464 170.754C453.461 171.104 449.054 169.622 445.242 166.308C441.431 162.995 439.35 158.837 439 153.834C438.65 148.831 440.132 144.424 443.446 140.612C446.759 136.801 450.917 134.72 455.92 134.37C457.663 134.248 459.289 134.344 460.796 134.658C462.303 134.971 463.768 135.497 465.191 136.235L461.836 88.2546L489.123 86.3464L490.395 104.538L472.204 105.81L475.384 151.29C475.734 156.293 474.252 160.7 470.938 164.511C467.625 168.323 463.467 170.404 458.464 170.754Z" fill="#9399A5"/>
</g>
<path d="M479.067 241.85L475.169 237.664L474.744 243.368L470.513 300.069L470.131 305.188L474.397 302.333L493.162 289.772L516.383 287.881L521.526 287.462L518.01 283.686L479.067 241.85Z" fill="#1B1B1B" stroke="#E3E3E3" stroke-width="5"/>
</svg>
