<svg width="358" height="133" viewBox="0 0 358 133" fill="none" xmlns="http://www.w3.org/2000/svg">
<rect width="312" height="105.074" rx="52.5372" fill="#E5A72E"/>
<path d="M124.13 64V40.7273H132.858C134.646 40.7273 136.146 41.0606 137.358 41.7273C138.577 42.3939 139.498 43.3106 140.119 44.4773C140.748 45.6364 141.062 46.9545 141.062 48.4318C141.062 49.9242 140.748 51.25 140.119 52.4091C139.49 53.5682 138.562 54.4811 137.335 55.1477C136.108 55.8068 134.596 56.1364 132.801 56.1364H127.017V52.6705H132.233C133.278 52.6705 134.134 52.4886 134.801 52.125C135.468 51.7614 135.96 51.2614 136.278 50.625C136.604 49.9886 136.767 49.2576 136.767 48.4318C136.767 47.6061 136.604 46.8788 136.278 46.25C135.96 45.6212 135.464 45.1326 134.79 44.7841C134.123 44.428 133.263 44.25 132.21 44.25H128.346V64H124.13ZM155.667 56.6591V46.5455H159.781V64H155.792V60.8977H155.611C155.217 61.875 154.569 62.6742 153.667 63.2955C152.773 63.9167 151.671 64.2273 150.361 64.2273C149.217 64.2273 148.205 63.9735 147.326 63.4659C146.455 62.9508 145.773 62.2045 145.281 61.2273C144.789 60.2424 144.542 59.053 144.542 57.6591V46.5455H148.656V57.0227C148.656 58.1288 148.959 59.0076 149.565 59.6591C150.171 60.3106 150.967 60.6364 151.951 60.6364C152.557 60.6364 153.145 60.4886 153.713 60.1932C154.281 59.8977 154.747 59.4583 155.111 58.875C155.482 58.2841 155.667 57.5455 155.667 56.6591ZM164.193 64V40.7273H168.307V49.4318H168.477C168.689 49.0076 168.988 48.5568 169.375 48.0795C169.761 47.5947 170.284 47.1818 170.943 46.8409C171.602 46.4924 172.443 46.3182 173.466 46.3182C174.814 46.3182 176.03 46.6629 177.113 47.3523C178.204 48.0341 179.068 49.0455 179.704 50.3864C180.348 51.7197 180.67 53.3561 180.67 55.2955C180.67 57.2121 180.356 58.8409 179.727 60.1818C179.098 61.5227 178.242 62.5455 177.159 63.25C176.075 63.9545 174.848 64.3068 173.477 64.3068C172.477 64.3068 171.647 64.1402 170.988 63.8068C170.329 63.4735 169.799 63.072 169.397 62.6023C169.004 62.125 168.697 61.6742 168.477 61.25H168.238V64H164.193ZM168.227 55.2727C168.227 56.4015 168.386 57.3902 168.704 58.2386C169.03 59.0871 169.496 59.75 170.102 60.2273C170.716 60.697 171.458 60.9318 172.329 60.9318C173.238 60.9318 174 60.6894 174.613 60.2045C175.227 59.7121 175.689 59.0417 176 58.1932C176.318 57.3371 176.477 56.3636 176.477 55.2727C176.477 54.1894 176.322 53.2273 176.011 52.3864C175.7 51.5455 175.238 50.8864 174.625 50.4091C174.011 49.9318 173.246 49.6932 172.329 49.6932C171.45 49.6932 170.704 49.9242 170.091 50.3864C169.477 50.8485 169.011 51.4962 168.693 52.3295C168.382 53.1629 168.227 54.1439 168.227 55.2727ZM188.281 40.7273V64H184.167V40.7273H188.281ZM192.511 64V46.5455H196.625V64H192.511ZM194.579 44.0682C193.928 44.0682 193.367 43.8523 192.897 43.4205C192.428 42.9811 192.193 42.4545 192.193 41.8409C192.193 41.2197 192.428 40.6932 192.897 40.2614C193.367 39.822 193.928 39.6023 194.579 39.6023C195.238 39.6023 195.799 39.822 196.261 40.2614C196.731 40.6932 196.966 41.2197 196.966 41.8409C196.966 42.4545 196.731 42.9811 196.261 43.4205C195.799 43.8523 195.238 44.0682 194.579 44.0682ZM214.65 51.1591L210.9 51.5682C210.794 51.1894 210.609 50.8333 210.343 50.5C210.086 50.1667 209.737 49.8977 209.298 49.6932C208.859 49.4886 208.321 49.3864 207.684 49.3864C206.828 49.3864 206.109 49.572 205.525 49.9432C204.95 50.3144 204.665 50.7955 204.673 51.3864C204.665 51.8939 204.851 52.3068 205.23 52.625C205.616 52.9432 206.253 53.2045 207.139 53.4091L210.116 54.0455C211.768 54.4015 212.995 54.9659 213.798 55.7386C214.609 56.5114 215.018 57.5227 215.025 58.7727C215.018 59.8712 214.696 60.8409 214.059 61.6818C213.431 62.5152 212.556 63.1667 211.434 63.6364C210.313 64.1061 209.025 64.3409 207.571 64.3409C205.434 64.3409 203.715 63.8939 202.412 63C201.109 62.0985 200.332 60.8447 200.082 59.2386L204.093 58.8523C204.275 59.6402 204.662 60.2348 205.253 60.6364C205.843 61.0379 206.612 61.2386 207.559 61.2386C208.537 61.2386 209.321 61.0379 209.912 60.6364C210.51 60.2348 210.809 59.7386 210.809 59.1477C210.809 58.6477 210.616 58.2348 210.23 57.9091C209.851 57.5833 209.26 57.3333 208.457 57.1591L205.48 56.5341C203.806 56.1856 202.567 55.5985 201.764 54.7727C200.961 53.9394 200.563 52.8864 200.571 51.6136C200.563 50.5379 200.855 49.6061 201.446 48.8182C202.044 48.0227 202.874 47.4091 203.934 46.9773C205.003 46.5379 206.234 46.3182 207.628 46.3182C209.673 46.3182 211.283 46.7538 212.457 47.625C213.639 48.4962 214.37 49.6742 214.65 51.1591ZM222.531 53.7727V64H218.417V40.7273H222.44V49.5114H222.645C223.054 48.5265 223.686 47.75 224.542 47.1818C225.406 46.6061 226.504 46.3182 227.838 46.3182C229.05 46.3182 230.107 46.572 231.008 47.0795C231.91 47.5871 232.607 48.3295 233.099 49.3068C233.599 50.2841 233.849 51.4773 233.849 52.8864V64H229.736V53.5227C229.736 52.3485 229.432 51.4356 228.826 50.7841C228.228 50.125 227.387 49.7955 226.304 49.7955C225.576 49.7955 224.925 49.9545 224.349 50.2727C223.781 50.5833 223.334 51.0341 223.008 51.625C222.69 52.2159 222.531 52.9318 222.531 53.7727Z" fill="black"/>
<mask id="mask0_294_314" style="mask-type:alpha" maskUnits="userSpaceOnUse" x="37" y="27" width="51" height="51">
<rect x="37.3887" y="27.719" width="49.6364" height="49.6364" fill="#D9D9D9"/>
</mask>
<g mask="url(#mask0_294_314)">
<path d="M60.1384 69.0826V52.2269L54.7611 57.6042L51.8657 54.6053L62.2066 44.2644L72.5475 54.6053L69.652 57.6042L64.2748 52.2269V69.0826H60.1384ZM45.6611 46.3326V40.1281C45.6611 38.9906 46.0662 38.0168 46.8762 37.2068C47.6862 36.3967 48.66 35.9917 49.7975 35.9917H74.6157C75.7532 35.9917 76.7269 36.3967 77.537 37.2068C78.347 38.0168 78.752 38.9906 78.752 40.1281V46.3326H74.6157V40.1281H49.7975V46.3326H45.6611Z" fill="#1C1B1F"/>
</g>
<path d="M290.724 69.3258L285.13 68.1317L288.053 73.0483L317.11 121.922L319.733 126.334L321.59 121.549L329.756 100.496L347.694 85.6276L351.666 82.335L346.62 81.258L290.724 69.3258Z" fill="#1B1B1B" stroke="#E3E3E3" stroke-width="5"/>
</svg>
