<svg width="1290" height="695" viewBox="0 0 1290 695" fill="none" xmlns="http://www.w3.org/2000/svg">
<rect x="980.786" y="204.996" width="57.0861" height="65.7474" transform="rotate(-28 980.786 204.996)" fill="white"/>
<mask id="mask0_310_313" style="mask-type:alpha" maskUnits="userSpaceOnUse" x="926" y="135" width="183" height="176">
<rect x="926.547" y="202.052" width="141" height="122.89" transform="rotate(-28 926.547 202.052)" fill="#D9D9D9"/>
</mask>
<g mask="url(#mask0_310_313)">
<path d="M1024.48 248.57L1034.85 243.054L1032.45 238.533L1037.63 235.775C1039.1 234.993 1040.1 233.905 1040.64 232.51C1041.17 231.114 1041.1 229.776 1040.42 228.495L1033.21 214.932C1032.52 213.651 1031.46 212.842 1030 212.504C1028.55 212.166 1027.08 212.388 1025.61 213.169L1010.05 221.444L1007.65 216.923L1028.4 205.89L1023.59 196.848L1013.21 202.364L1010.81 197.843L1000.44 203.36L1002.84 207.881L997.653 210.639C996.183 211.42 995.182 212.509 994.648 213.904C994.115 215.299 994.189 216.637 994.87 217.918L1002.08 231.481C1002.76 232.762 1003.83 233.572 1005.29 233.909C1006.74 234.247 1008.2 234.026 1009.67 233.244L1025.23 224.97L1027.64 229.491L1006.89 240.523L1011.7 249.565L1022.07 244.049L1024.48 248.57ZM995.376 281.44C992.523 282.957 989.61 283.37 986.636 282.68C983.663 281.989 981.516 280.401 980.193 277.914L951.347 223.662C950.025 221.175 949.909 218.506 950.999 215.655C952.089 212.804 954.061 210.62 956.914 209.103L1039.91 164.973C1042.76 163.456 1045.68 163.043 1048.65 163.733C1051.62 164.424 1053.77 166.012 1055.09 168.499L1083.94 222.752C1085.26 225.238 1085.38 227.907 1084.29 230.758C1083.2 233.609 1081.23 235.793 1078.37 237.31L995.376 281.44Z" fill="#E5A72E"/>
</g>
<rect x="459.587" y="55.1491" width="64.7785" height="74.607" transform="rotate(-13 459.587 55.1491)" fill="white"/>
<mask id="mask1_310_313" style="mask-type:alpha" maskUnits="userSpaceOnUse" x="401" y="0" width="188" height="172">
<rect x="401" y="35.9922" width="160" height="139.449" transform="rotate(-13 401 35.9922)" fill="#D9D9D9"/>
</mask>
<g mask="url(#mask1_310_313)">
<path d="M494.679 115.741L507.671 112.742L506.364 107.081L512.86 105.581C514.7 105.156 516.118 104.257 517.112 102.885C518.107 101.512 518.419 100.024 518.048 98.4199L514.127 81.4355C513.757 79.8314 512.824 78.6305 511.328 77.8329C509.833 77.0352 508.165 76.8488 506.324 77.2737L486.837 81.7727L485.53 76.1113L511.513 70.1126L508.899 58.7896L495.907 61.789L494.6 56.1275L481.609 59.1269L482.916 64.7883L476.42 66.288C474.58 66.7129 473.162 67.6116 472.168 68.9842C471.173 70.3567 470.861 71.8451 471.231 73.4491L475.153 90.4335C475.523 92.0376 476.456 93.2385 477.951 94.0362C479.447 94.8338 481.115 95.0202 482.955 94.5953L502.443 90.0963L503.75 95.7578L477.767 101.756L480.381 113.079L493.372 110.08L494.679 115.741ZM453.13 143.224C449.557 144.048 446.243 143.646 443.187 142.016C440.131 140.386 438.243 138.014 437.524 134.9L421.84 66.9625C421.121 63.8486 421.777 60.8894 423.81 58.0846C425.842 55.2798 428.644 53.465 432.217 52.6402L536.15 28.6454C539.723 27.8206 543.037 28.2232 546.093 29.8533C549.149 31.4833 551.037 33.8552 551.755 36.969L567.44 104.907C568.159 108.02 567.502 110.98 565.47 113.784C563.438 116.589 560.635 118.404 557.063 119.229L453.13 143.224Z" fill="#E5A72E"/>
</g>
<rect x="119.168" y="549.714" width="74.9002" height="86.2643" transform="rotate(-28 119.168 549.714)" fill="white"/>
<mask id="mask2_310_313" style="mask-type:alpha" maskUnits="userSpaceOnUse" x="48" y="459" width="240" height="230">
<rect x="48" y="545.852" width="185" height="161.238" transform="rotate(-28 48 545.852)" fill="#D9D9D9"/>
</mask>
<g mask="url(#mask2_310_313)">
<path d="M176.491 606.884L190.103 599.647L186.949 593.715L193.755 590.096C195.684 589.071 196.998 587.643 197.698 585.812C198.398 583.982 198.301 582.226 197.407 580.545L187.945 562.75C187.051 561.069 185.65 560.007 183.741 559.564C181.832 559.12 179.913 559.411 177.985 560.437L157.567 571.293L154.413 565.361L181.637 550.886L175.329 539.022L161.717 546.26L158.563 540.328L144.951 547.566L148.105 553.498L141.299 557.117C139.37 558.142 138.056 559.57 137.356 561.4C136.656 563.231 136.753 564.987 137.647 566.667L147.109 584.463C148.002 586.143 149.404 587.206 151.313 587.649C153.222 588.092 155.141 587.801 157.069 586.776L177.487 575.919L180.641 581.851L153.417 596.327L159.725 608.19L173.337 600.953L176.491 606.884ZM138.311 650.012C134.568 652.002 130.745 652.544 126.844 651.639C122.943 650.733 120.125 648.648 118.391 645.386L80.5424 574.203C78.8077 570.941 78.6555 567.439 80.0859 563.699C81.5163 559.958 84.1031 557.092 87.8464 555.102L196.743 497.201C200.486 495.21 204.309 494.668 208.21 495.574C212.111 496.48 214.928 498.564 216.663 501.827L254.512 573.009C256.246 576.272 256.398 579.773 254.968 583.514C253.538 587.255 250.951 590.12 247.207 592.111L138.311 650.012Z" fill="#E5A72E"/>
</g>
<rect x="173.615" y="146.754" width="94.3338" height="108.646" transform="rotate(58 173.615 146.754)" fill="white"/>
<mask id="mask3_310_313" style="mask-type:alpha" maskUnits="userSpaceOnUse" x="0" y="57" width="296" height="306">
<rect x="172.216" y="57" width="233" height="203.073" transform="rotate(58 172.216 57)" fill="#D9D9D9"/>
</mask>
<g mask="url(#mask3_310_313)">
<path d="M106.821 223.797L117.11 240.263L124.286 235.779L129.43 244.012C130.888 246.345 132.798 247.871 135.159 248.589C137.52 249.308 139.718 249.032 141.751 247.762L163.278 234.31C165.311 233.04 166.522 231.186 166.911 228.748C167.3 226.311 166.766 223.926 165.309 221.593L149.875 196.894L157.05 192.41L177.629 225.343L191.98 216.375L181.691 199.909L188.867 195.425L178.577 178.959L171.402 183.442L166.257 175.209C164.799 172.877 162.89 171.351 160.529 170.632C158.167 169.914 155.97 170.19 153.937 171.46L132.41 184.912C130.377 186.182 129.166 188.036 128.776 190.473C128.387 192.911 128.921 195.296 130.379 197.628L145.813 222.328L138.637 226.812L118.059 193.879L103.707 202.847L113.997 219.313L106.821 223.797ZM49.2817 179.617C46.4521 175.088 45.4351 170.334 46.2306 165.353C47.0261 160.372 49.3971 156.649 53.3437 154.183L139.451 100.377C143.398 97.9106 147.784 97.4117 152.61 98.8802C157.435 100.349 161.262 103.347 164.092 107.875L246.406 239.605C249.235 244.133 250.252 248.888 249.457 253.869C248.661 258.849 246.29 262.573 242.344 265.039L156.236 318.845C152.289 321.311 147.903 321.81 143.078 320.341C138.253 318.873 134.425 315.875 131.596 311.346L49.2817 179.617Z" fill="#E5A72E"/>
</g>
<rect x="625.356" y="556.066" width="55.4666" height="63.8822" transform="rotate(12 625.356 556.066)" fill="white"/>
<mask id="mask4_310_313" style="mask-type:alpha" maskUnits="userSpaceOnUse" x="562" y="520" width="159" height="146">
<rect x="586.825" y="520" width="137" height="119.404" transform="rotate(12 586.825 520)" fill="#D9D9D9"/>
</mask>
<g mask="url(#mask4_310_313)">
<path d="M630.667 615.789L641.835 618.162L642.869 613.296L648.453 614.483C650.035 614.819 651.46 614.634 652.728 613.929C653.997 613.224 654.777 612.182 655.07 610.803L658.174 596.204C658.467 594.825 658.177 593.555 657.305 592.395C656.433 591.235 655.206 590.487 653.624 590.151L636.874 586.59L637.908 581.724L660.242 586.471L662.311 576.738L651.144 574.364L652.178 569.498L641.011 567.124L639.977 571.991L634.393 570.804C632.811 570.468 631.386 570.652 630.118 571.358C628.849 572.063 628.068 573.105 627.775 574.484L624.672 589.083C624.379 590.462 624.669 591.731 625.54 592.891C626.412 594.052 627.639 594.8 629.221 595.136L645.972 598.697L644.938 603.563L622.603 598.816L620.535 608.549L631.702 610.922L630.667 615.789ZM588.479 622.08C585.408 621.427 582.982 619.916 581.2 617.545C579.418 615.174 578.812 612.65 579.381 609.974L591.794 551.577C592.362 548.9 593.943 546.841 596.535 545.4C599.127 543.959 601.958 543.565 605.029 544.217L694.367 563.207C697.438 563.859 699.864 565.371 701.646 567.742C703.428 570.113 704.034 572.637 703.465 575.313L691.052 633.71C690.483 636.387 688.903 638.445 686.311 639.887C683.719 641.328 680.887 641.722 677.816 641.069L588.479 622.08Z" fill="#E5A72E"/>
</g>
<rect x="1125.89" y="473.29" width="97.5727" height="112.377" transform="rotate(30 1125.89 473.29)" fill="white"/>
<mask id="mask5_310_313" style="mask-type:alpha" maskUnits="userSpaceOnUse" x="976" y="392" width="314" height="303">
<rect x="1081.02" y="392" width="241" height="210.046" transform="rotate(30 1081.02 392)" fill="#D9D9D9"/>
</mask>
<g mask="url(#mask5_310_313)">
<path d="M1102.3 576.081L1119.69 586.123L1124.07 578.544L1132.76 583.564C1135.23 584.987 1137.71 585.453 1140.22 584.963C1142.72 584.472 1144.59 583.153 1145.83 581.006L1158.96 558.268C1160.2 556.12 1160.41 553.839 1159.58 551.424C1158.75 549.009 1157.11 547.09 1154.64 545.668L1128.55 530.605L1132.93 523.026L1167.71 543.109L1176.47 527.95L1159.07 517.909L1163.45 510.329L1146.06 500.288L1141.68 507.867L1132.98 502.846C1130.52 501.424 1128.04 500.958 1125.53 501.448C1123.02 501.938 1121.15 503.257 1119.91 505.405L1106.78 528.143C1105.54 530.29 1105.34 532.572 1106.17 534.987C1106.99 537.402 1108.64 539.32 1111.1 540.743L1137.19 555.805L1132.82 563.385L1098.03 543.302L1089.28 558.46L1106.67 568.502L1102.3 576.081ZM1028.29 563.674C1023.51 560.912 1020.27 557.064 1018.58 552.129C1016.89 547.194 1017.25 542.642 1019.65 538.473L1072.17 447.521C1074.57 443.352 1078.34 440.767 1083.46 439.765C1088.58 438.763 1093.53 439.642 1098.31 442.404L1237.45 522.737C1242.23 525.498 1245.47 529.347 1247.16 534.282C1248.86 539.217 1248.5 543.769 1246.09 547.937L1193.58 638.89C1191.17 643.058 1187.41 645.644 1182.29 646.646C1177.17 647.648 1172.22 646.768 1167.44 644.007L1028.29 563.674Z" fill="#E5A72E"/>
</g>
</svg>
