<svg width="730" height="70" viewBox="0 0 730 70" fill="white" xmlns="http://www.w3.org/2000/svg">
<path d="M150.64 1.87988H199.86L195.34 15.9598L182.57 15.9498V68.0099H166.66V15.9498L150.65 15.9799L150.64 1.87988Z" fill="white"/>
<path d="M281.23 1.87988H330.45L325.93 15.9598L313.16 15.9498V68.0099H297.25V15.9498L281.24 15.9799L281.23 1.87988Z" fill="white"/>
<path d="M530.07 1.75977L507.5 35.2998L484.72 1.75977H484.4H471.51V67.8998H486.82V28.3798L507.5 58.0298L528.3 28.3798V67.8998H543.61V1.75977H530.07Z" fill="white"/>
<path d="M585.14 17.1401V45.7701C585.14 51.8701 582.04 55.7802 576.49 55.7802C570.94 55.7802 567.84 51.8701 567.84 45.7701V17.1401H552.53V45.2501C552.53 56.6201 558.52 69.4801 576.49 69.4801C594.46 69.4801 600.45 56.6201 600.45 45.2501V17.1401H585.14Z" fill="white"/>
<path d="M204.61 22.7998H220.39L220.37 67.8998H204.7L204.61 22.7998Z" fill="white"/>
<path d="M228.3 1.56982H244.06V32.3699L259.68 17.0399H278.5L258.74 36.2198L280.87 67.8999H263.5L248.73 45.9299L244.06 50.4698V67.8899H228.3V1.56982Z" fill="white"/>
<path d="M422.45 36.22L444.58 67.9H427.21L412.44 45.9301L407.77 50.47V67.89H392.01V1.56006H407.77V32.36L423.39 17.03H442.21L422.45 36.22Z" fill="white"/>
<path d="M220.93 9.04004C220.93 13.79 217.08 17.64 212.33 17.64C207.58 17.64 203.73 13.79 203.73 9.04004C203.73 4.29004 207.58 0.439941 212.33 0.439941C217.07 0.439941 220.93 4.29004 220.93 9.04004Z" fill="white"/>
<path d="M654.94 22.7998H670.72L670.7 67.8998H655.03L654.94 22.7998Z" fill="white"/>
<path d="M671.43 9.04004C671.43 13.79 667.58 17.64 662.83 17.64C658.08 17.64 654.23 13.79 654.23 9.04004C654.23 4.29004 658.08 0.439941 662.83 0.439941C667.58 0.439941 671.43 4.29004 671.43 9.04004Z" fill="white"/>
<path d="M328.92 40.8999C328.92 26.6999 339.88 15.0699 353.8 13.9899C353.1 13.9399 352.15 13.8999 351.44 13.8999C336.53 13.8999 324.44 25.9899 324.44 40.8999C324.44 55.8099 336.53 67.8999 351.44 67.8999C352.15 67.8999 353.11 67.8599 353.8 67.8099C339.88 66.7299 328.92 55.0999 328.92 40.8999Z" fill="#25F4EE"/>
<path d="M359.93 13.8999C359.21 13.8999 358.25 13.9399 357.55 13.9899C371.46 15.0799 382.42 26.6999 382.42 40.8999C382.42 55.0899 371.47 66.7199 357.55 67.8099C358.25 67.8599 359.21 67.8999 359.93 67.8999C374.84 67.8999 386.93 55.8099 386.93 40.8999C386.93 25.9899 374.85 13.8999 359.93 13.8999Z" fill="#FE2C55"/>
<path d="M355.67 13.8999C340.76 13.8999 328.67 25.9899 328.67 40.8999C328.67 55.8099 340.76 67.8999 355.67 67.8999C370.58 67.8999 382.67 55.8099 382.67 40.8999C382.67 25.9899 370.58 13.8999 355.67 13.8999ZM355.67 54.0199C348.42 54.0199 342.54 48.1399 342.54 40.8899C342.54 33.6399 348.42 27.7599 355.67 27.7599C362.92 27.7599 368.8 33.6399 368.8 40.8899C368.79 48.1499 362.92 54.0199 355.67 54.0199Z" fill="white"/>
<path d="M635.36 38.7502L623.52 33.8803C620.98 32.8303 619.92 31.6002 620.1 29.8602C620.3 27.8202 623.17 25.9202 627.11 26.3302C630.64 26.6902 633.63 28.4003 635.5 31.0103L645.49 23.8302C641.66 19.1102 635.58 15.9602 628.32 15.2202C617.27 14.0802 607.58 20.1703 606.72 28.7903C606.05 35.4503 609.85 40.7102 617.71 43.9902L629.82 49.0902C633.36 50.5902 634.72 52.0902 634.5 54.2502C634.23 56.9902 630.69 58.7203 626.27 58.2703C621.25 57.7503 617.31 55.0802 615.47 51.1202L605.03 58.4103C608.76 64.0203 615.55 68.8102 624.64 69.7402C637.15 71.0302 646.94 64.8403 647.92 55.0203C648.89 45.2203 641.95 41.4802 635.36 38.7502Z" fill="white"/>
<path d="M716.76 49.4398L716.68 49.6799C715.54 52.9899 711.5 56.5599 705.3 56.5599C696.91 56.5599 692.38 49.2898 692.38 42.4398C692.38 34.4498 697.94 28.4199 705.3 28.4199C711.22 28.4199 715.22 31.8699 716.56 35.2899L716.65 35.5199L729.02 28.1599L728.92 27.9799C725.49 21.7799 717.48 15.1499 705.3 15.1499C689.63 15.1499 677.81 26.8798 677.81 42.4398C677.81 58.1098 689.67 69.9299 705.4 69.9299C717.7 69.9299 725.68 63.2399 729.05 56.9799L729.14 56.7999L716.76 49.4398Z" fill="white"/>
<path d="M121 31.7199C120.9 31.6099 92.3999 10.64 83.9199 4.40995C82.9399 3.68995 81.5699 4.38989 81.5699 5.5999V5.90995L81.5599 30.1899V30.2299C81.5499 32.2399 79.5799 33.57 77.7999 32.93C77.6399 32.87 47.3799 10.8199 38.6299 4.43986C37.6499 3.72986 36.2899 4.42993 36.2899 5.63993V5.91996V33.5799C36.2899 35.1499 35.0199 36.42 33.4499 36.42H7.87992C6.79992 36.42 5.91992 37.2999 5.91992 38.3799V65.7099H29.3899C30.4699 65.7099 31.3499 64.8299 31.3499 63.7499V39.2399C31.3499 37.0099 33.8099 35.6499 35.6999 36.8399L74.1599 65.04C75.1399 65.76 76.5099 65.0599 76.5099 63.8499V39.0099C76.5099 37.4499 77.6099 36.31 78.9199 36.18C79.4799 36.13 80.0899 36.2499 80.6599 36.6099L119.46 65.04C120.44 65.76 121.81 65.0599 121.81 63.8499V33.7799C121.8 32.4999 121.28 32.0299 121 31.7199Z" fill="white"/>
<path d="M80.4199 1.87993C78.7399 0.64993 76.3799 1.83997 76.3799 3.91997L76.3699 26.41V26.4499C76.3599 28.4599 74.3899 29.7899 72.6099 29.15L77.7999 32.92C79.5699 33.57 81.5399 32.2399 81.5599 30.2199V30.18L81.5699 5.89995V5.58989C81.5699 4.48989 82.7099 3.80992 83.6499 4.23992C82.8999 3.69992 81.6599 2.78993 80.4199 1.87993Z" fill="#25F4EE"/>
<path d="M31.1 3.93998V29.8001C31.1 31.3701 29.83 32.64 28.26 32.64H2.68998C1.60998 32.64 0.72998 33.52 0.72998 34.6V62.6701C0.72998 64.3501 2.08998 65.7 3.75998 65.7H5.90998V38.37C5.90998 37.29 6.78998 36.4101 7.86998 36.4101H23.37H26.15H33.44C33.55 36.4101 33.65 36.4 33.75 36.39C33.78 36.39 33.81 36.38 33.85 36.38C33.92 36.37 33.99 36.36 34.06 36.34C34.09 36.33 34.13 36.3201 34.16 36.3101C34.23 36.2901 34.29 36.27 34.35 36.25C34.38 36.24 34.41 36.23 34.44 36.22C34.51 36.19 34.57 36.17 34.63 36.14C34.66 36.1301 34.68 36.12 34.71 36.1C34.78 36.06 34.85 36.02 34.92 35.98C34.94 35.97 34.95 35.96 34.97 35.95C35.23 35.78 35.46 35.57 35.65 35.33C35.84 35.09 35.99 34.8201 36.1 34.5201V34.51C36.2 34.21 36.26 33.9 36.26 33.57V5.91007V5.63004C36.26 5.56004 36.27 5.48007 36.28 5.41007C36.28 5.39007 36.29 5.36 36.29 5.34C36.3 5.29 36.31 5.24999 36.32 5.19999C36.33 5.16999 36.34 5.15003 36.35 5.12003C36.36 5.08003 36.37 5.05004 36.39 5.01004C36.4 4.98004 36.42 4.95008 36.44 4.92008C36.46 4.89008 36.47 4.85999 36.49 4.82999C36.51 4.79999 36.53 4.77002 36.55 4.74002C36.57 4.72002 36.58 4.69008 36.6 4.67008C36.63 4.64008 36.66 4.60999 36.68 4.57999C36.7 4.55999 36.71 4.55006 36.73 4.53006C36.76 4.50006 36.8 4.46998 36.84 4.43998C36.85 4.42998 36.87 4.42007 36.88 4.41007C36.92 4.38007 36.97 4.34999 37.01 4.32999C37.02 4.31999 37.03 4.32009 37.04 4.31009C37.09 4.28009 37.14 4.26002 37.19 4.24002C37.2 4.24002 37.2 4.24001 37.21 4.23001C37.27 4.21001 37.32 4.19008 37.38 4.17008C37.75 4.08008 38.16 4.12002 38.52 4.36002C37.72 3.77002 36.41 2.82003 35.11 1.87003C33.45 0.660029 31.1 1.85998 31.1 3.93998Z" fill="#25F4EE"/>
<path d="M125.96 35.4C125.93 35.37 124 33.94 121.01 31.73L121.02 31.74C121.05 31.78 121.09 31.82 121.13 31.86C121.15 31.88 121.18 31.9099 121.2 31.9399C121.22 31.9599 121.24 31.98 121.26 32.01C121.29 32.04 121.31 32.08 121.34 32.11C121.36 32.14 121.38 32.1601 121.4 32.1801C121.43 32.2201 121.45 32.2701 121.48 32.3101C121.5 32.3401 121.51 32.36 121.53 32.39C121.56 32.44 121.58 32.5001 121.6 32.5601C121.61 32.5901 121.63 32.62 121.64 32.65C121.66 32.71 121.68 32.78 121.7 32.85C121.71 32.89 121.72 32.92 121.73 32.96C121.75 33.04 121.76 33.13 121.77 33.22C121.78 33.26 121.78 33.29 121.79 33.33C121.8 33.46 121.81 33.61 121.81 33.76V63.83C121.81 65.04 120.43 65.74 119.46 65.02L122.73 67.4399C124.41 68.6799 126.78 67.48 126.78 65.4V37.4399C126.77 36.1799 126.24 35.71 125.96 35.4Z" fill="#FE2C55"/>
<path d="M80.6499 36.59C80.0799 36.23 79.4799 36.1001 78.9099 36.1601C77.5999 36.3001 76.4999 37.43 76.4999 38.99V63.83C76.4999 65.04 75.1199 65.74 74.1499 65.02L77.4199 67.44C79.0999 68.68 81.4699 67.48 81.4699 65.4V42.6701C81.4699 41.1101 82.5699 39.97 83.8799 39.84C84.0199 39.83 84.1599 39.82 84.2999 39.83C84.7299 39.86 85.1799 40 85.6099 40.27L85.5999 40.26C85.5999 40.26 85.6099 40.26 85.6099 40.27L80.6499 36.59Z" fill="#FE2C55"/>
<path d="M40.2599 40.1997L39.7999 39.8397L39.6999 39.7697L35.6799 36.8197C33.7899 35.6297 31.3299 36.9897 31.3299 39.2197V40.7597V41.5797V63.7297C31.3299 64.8097 30.4499 65.6897 29.3699 65.6897H5.8999V66.7597C5.8999 68.1997 7.0699 69.3697 8.5099 69.3697H34.3199C35.3999 69.3697 36.2799 68.4898 36.2799 67.4098V42.8997C36.2799 41.2297 37.6599 40.0398 39.1499 40.0598C39.6499 40.0698 40.1499 40.1997 40.6299 40.4997L40.6199 40.4897C40.6199 40.4897 40.6299 40.4897 40.6299 40.4997L40.2599 40.1997Z" fill="#FE2C55"/>
</svg>
